<svg
  version="1.1"
  id="logo_svg"
  xmlns="http://www.w3.org/2000/svg"
  xmlns:xlink="http://www.w3.org/1999/xlink"
  x="0px"
  y="0px"
  viewBox="0 0 140 124"
  enable-background="new 0 0 140 124"
  xml:space="preserve"
>
  <g style="fill: rgb(0, 0, 0);">
    <g style="fill: rgb(0, 0, 0);">
      <path
        fill="#454546"
        d="M14.8,62.1c-1.2,0.3-2.8,1.4-3.5,2.4L2.7,76.4c-0.7,1-1.3,2.9-1.3,4.1v28.7c0,1.2,1,2,2.2,1.7l6.9-1.9
						c1.2-0.3,2.2-1.6,2.2-2.9V77.3c0-1.2,1-2.5,2.2-2.9l6.6-1.8c1.2-0.3,2.2,0.4,2.2,1.7V103c0,1.2,1,2,2.2,1.7l6.9-1.9
						c1.2-0.3,2.2-1.6,2.2-2.9V71.1c0-1.2,1-2.5,2.2-2.9l6.6-1.8c1.2-0.3,2.2,0.4,2.2,1.7v28.7c0,1.2,1,2,2.2,1.7l6.9-1.9
						c1.2-0.3,2.2-1.6,2.2-2.9V64.9c0-1.2-0.8-2.9-1.8-3.7l-7.8-6.3c-1-0.8-2.7-1.2-3.9-0.8L14.8,62.1z"
        style="fill: rgb(204, 204, 204);"
      ></path>
    </g>
    <g style="fill: rgb(0, 0, 0);">
      <path
        fill="#454546"
        d="M66.5,48.1c-1.2,0.3-2.2,1.6-2.2,2.9v70.5c0,1.2,0.6,1.4,1.3,0.4l8.6-11.9c0.7-1,1.3-2.9,1.3-4.1V93.5
						c0-1.2,1-2.5,2.2-2.9l6.6-1.8c1.2-0.3,2.8-1.4,3.5-2.4l8.6-11.9c0.7-1,1.3-2.9,1.3-4.1V54c0-1.2-0.8-2.9-1.8-3.7l-7.8-6.3
						c-1-0.8-2.7-1.2-3.9-0.8L66.5,48.1z M77.8,78.2c-1.2,0.3-2.2-0.4-2.2-1.7V60.2c0-1.2,1-2.5,2.2-2.9l6.6-1.8
						c1.2-0.3,2.2,0.4,2.2,1.7v16.4c0,1.2-1,2.5-2.2,2.9L77.8,78.2z"
        style="fill: rgb(204, 204, 204);"
      ></path>
    </g>
    <g style="fill: rgb(0, 0, 0);">
      <path
        fill="#454546"
        d="M129.1,33.1c-1-0.8-2.7-1.2-3.9-0.8l-6.6,1.9c-1.2,0.3-2.2-0.4-2.2-1.7V2.5c0-1.2-0.6-1.4-1.3-0.4
						l-8.8,13.1c-0.7,1-1.3,2.9-1.3,4.2v61.9c0,1.2,1,2,2.2,1.7l17.9-5c1.2-0.3,2.8-1.4,3.5-2.4l8.6-11.9c0.7-1,1.3-2.9,1.3-4.1V43.1
						c0-1.2-0.8-2.9-1.8-3.7L129.1,33.1z M118.6,67.4c-1.2,0.3-2.2-0.4-2.2-1.7V49.3c0-1.2,1-2.5,2.2-2.9l6.6-1.8
						c1.2-0.3,2.2,0.4,2.2,1.7v16.4c0,1.2-1,2.5-2.2,2.9L118.6,67.4z"
        style="fill: rgb(204, 204, 204);"
      ></path>
    </g>
  </g>
</svg>